# xmcd CD database file
#
# Track frame offsets:
#	150
#	19335
#	39523
#	61355
#	80543
#	97890
#	120503
#	144795
#	173268
#
# Disc length: 2783 seconds
#
# Revision: 0
# Processed by: cddbd v1.5.1PL0 Copyright (c) Steve Scherf et al.
# Submitted via: CDex 1.51
#
DISCID=620add09
DTITLE=ef-LINE - ef-LINE
DYEAR=1992
DGENRE=Japanese Rock
TTITLE0=ALWAYS
TTITLE1=Let's Go Away
TTITLE2=SHa-la-la
TTITLE3=Fake!
TTITLE4=夢の中で
TTITLE5=君と今
TTITLE6=JEALOUSY
TTITLE7=SEE THE LIGHT
TTITLE8=Never Say Good-Bye
EXTD=YEAR: 1992
EXTT0=
EXTT1=
EXTT2=
EXTT3=
EXTT4=
EXTT5=
EXTT6=
EXTT7=
EXTT8=
PLAYORDER=
